<?xml version="1.0" encoding="UTF-8" standalone="no"?>
<!-- Created with Inkscape (http://www.inkscape.org/) -->

<svg
   xmlns:dc="http://purl.org/dc/elements/1.1/"
   xmlns:cc="http://creativecommons.org/ns#"
   xmlns:rdf="http://www.w3.org/1999/02/22-rdf-syntax-ns#"
   xmlns:svg="http://www.w3.org/2000/svg"
   xmlns="http://www.w3.org/2000/svg"
   xmlns:sodipodi="http://sodipodi.sourceforge.net/DTD/sodipodi-0.dtd"
   xmlns:inkscape="http://www.inkscape.org/namespaces/inkscape"
   width="125.67672mm"
   height="121.33821mm"
   viewBox="0 0 445.31121 429.93854"
   id="svg2"
   version="1.1"
   inkscape:version="0.91 r13725"
   sodipodi:docname="logo.svg">
  <defs
     id="defs4" />
  <sodipodi:namedview
     id="base"
     pagecolor="#ffffff"
     bordercolor="#666666"
     borderopacity="1.0"
     inkscape:pageopacity="0.0"
     inkscape:pageshadow="2"
     inkscape:zoom="0.49497475"
     inkscape:cx="164.61385"
     inkscape:cy="539.72741"
     inkscape:document-units="px"
     inkscape:current-layer="layer1"
     showgrid="false"
     inkscape:window-width="1366"
     inkscape:window-height="716"
     inkscape:window-x="0"
     inkscape:window-y="0"
     inkscape:window-maximized="1"
     fit-margin-top="0"
     fit-margin-left="0"
     fit-margin-right="0"
     fit-margin-bottom="0" />
  <metadata
     id="metadata7">
    <rdf:RDF>
      <cc:Work
         rdf:about="">
        <dc:format>image/svg+xml</dc:format>
        <dc:type
           rdf:resource="http://purl.org/dc/dcmitype/StillImage" />
        <dc:title></dc:title>
      </cc:Work>
    </rdf:RDF>
  </metadata>
  <g
     inkscape:label="Layer 1"
     inkscape:groupmode="layer"
     id="layer1"
     transform="translate(-7.7546136,-613.88414)">
    <g
       id="g4217"
       transform="translate(-134.96454,311.95362)"
       style="fill:#1996ff;fill-opacity:1">
      <path
         style="fill:#1996ff;fill-opacity:1"
         d="m 218.96548,729.77369 c -20.09354,-4.30814 -33.85187,-11.96735 -48.8762,-27.2092 -9.24831,-9.3822 -12.30122,-13.52132 -17.15813,-23.26294 -7.7625,-15.56943 -10.084,-25.67838 -10.04138,-43.72507 0.0409,-17.31354 2.86048,-29.25892 10.26384,-43.4834 12.77016,-24.53599 35.24206,-42.35914 61.82312,-49.0338 13.3055,-3.34109 32.72022,-3.3385 46.6716,0.006 26.58096,6.37255 50.58007,25.47905 62.81734,50.01097 1.54325,3.09375 2.97307,5.81443 3.17738,6.04597 0.84152,0.95361 26.86899,-14.36849 35.48584,-20.89014 8.60794,-6.51494 17.58539,-17.09644 17.58539,-20.7275 0,-3.00812 -11.53208,-6.7794 -28.75,-9.40199 -42.55477,-6.4818 -73.43976,-16.83114 -92.10872,-30.86497 -8.2662,-6.21387 -11.49518,-10.36295 -13.6582,-17.55014 -2.3322,-7.74929 -2.18166,-13.69724 0.57046,-22.5398 6.72626,-21.61153 36.57576,-52.54951 79.80876,-82.71907 13.42077,-9.3655 13.91279,-9.86722 12.14771,-12.38722 -5.43939,-7.76582 -8.48019,-23.6961 -6.71525,-35.18024 2.74093,-17.83472 13.40155,-32.55916 29.44423,-40.66828 6.80028,-3.43736 8.42685,-3.73376 20.51101,-3.73753 12.15095,-0.004 13.74554,0.28987 21.48655,3.95717 15.15875,7.18146 25.80587,21.84514 28.8762,39.76956 3.81331,22.26201 -8.56656,46.11412 -29.02068,55.91363 -15.61798,7.48254 -34.78035,6.06837 -49.19263,-3.63038 l -6.11743,-4.11673 -5.36592,3.14464 c -6.23274,3.65263 -6.92542,5.76671 -6.89762,21.05175 0.037,20.32977 6.33265,36.00024 19.73063,49.11129 19.85932,19.43401 48.33522,27.3282 97.93075,27.14868 l 27.05484,-0.0979 0.71075,4.37985 c 0.39091,2.40891 0.41741,4.85449 0.0589,5.43459 -0.35852,0.58011 -3.29055,1.06242 -6.5156,1.07181 -12.28554,0.0358 -11.77997,-0.80623 -11.29211,18.80661 0.23561,9.47183 0.8199,17.61221 1.29841,18.08978 0.47853,0.47755 3.85353,0.1065 7.5,-0.82458 10.57611,-2.70042 32.19324,-2.09665 44.75498,1.25003 32.84377,8.75017 59.48373,35.11518 68.36672,67.6611 3.08808,11.31427 3.08808,38.68572 0,50 -8.79909,32.23848 -35.69295,59.03052 -67.9231,67.6659 -13.70325,3.67148 -36.04219,3.71703 -49.36318,0.10062 -18.88596,-5.12716 -37.42898,-16.89095 -49.28863,-31.26894 -24.39009,-29.56923 -29.08963,-70.98083 -11.91598,-105.00165 8.24294,-16.32915 21.56915,-30.19862 38.33158,-39.8942 7.99381,-4.62371 8.15722,-4.82213 7.49604,-9.10176 -0.37177,-2.40625 -0.68213,-11.46115 -0.68969,-20.122 l -0.0138,-15.747 -15.61281,-0.83466 c -36.79133,-1.96685 -62.00457,-9.37506 -81.38217,-23.91187 -19.70043,-14.77902 -30.44203,-36.52387 -30.48655,-61.71574 l -0.0185,-10.45627 -3.3746,2.21113 c -15.54968,10.18854 -47.96188,41.31557 -56.41026,54.17355 -12.73962,19.38903 -11.27608,32.7219 4.7522,43.2926 17.79492,11.73581 40.52525,19.27305 77.066,25.55462 37.9722,6.52764 45.46666,10.33482 45.46666,23.097 0,5.51229 -7.9658,17.41821 -16.56722,24.76187 -8.48112,7.24093 -21.46437,15.58186 -34.17476,21.95516 l -10.11697,5.07289 1.79796,8.52185 c 1.19969,5.68622 1.60275,12.8892 1.21129,21.64686 -2.61533,58.51036 -58.03799,101.44206 -115.1491,89.19721 z m 44.8738,-13.41982 c 17.51142,-5.58398 31.05643,-15.36074 42.6913,-30.8145 9.95963,-13.22865 16.6837,-33.1372 16.6837,-49.39685 0,-6.03949 -1.93704,-19.16975 -2.9822,-20.2149 -0.2555,-0.2555 -5.4016,1.57915 -11.43576,4.077 -12.70588,5.2596 -32.74899,12.37735 -44.0777,15.65293 l -7.87066,2.27573 -1.02493,-2.7409 c -3.1108,-8.31905 -3.24932,-8.00698 4.5274,-10.19992 9.79426,-2.76188 40.5644,-13.83806 49.37076,-17.77176 l 7.13192,-3.18573 -3.61664,-7.04175 c -7.82072,-15.22722 -21.71194,-28.95255 -36.89719,-36.45658 -19.39816,-9.5859 -44.61864,-11.32134 -65,-4.4727 -26.22276,8.8115 -47.63748,31.53208 -54.44409,57.76405 -9.27112,35.72993 5.09071,72.8557 36.01981,93.11233 20.49929,13.42575 47.21995,16.9723 70.92428,9.41355 z m 249.375,0.88221 c 23.4738,-5.58924 44.07339,-22.35249 55.03376,-44.7846 19.64183,-40.20006 4.39859,-88.47158 -35.03376,-110.94314 -3.09375,-1.76305 -10.40625,-4.73616 -16.25,-6.60691 -8.99453,-2.87941 -12.73503,-3.39165 -24.375,-3.33803 -7.89581,0.0364 -16.411,0.81785 -20,1.83548 l -6.25,1.77215 0.35933,6.54983 c 1.04795,19.10262 12.99353,50.33348 23.12891,60.46886 4.55824,4.55823 4.71621,4.98347 3.36845,9.06723 -0.77774,2.35659 -1.83,4.54177 -2.33837,4.85595 -1.60008,0.98891 -7.68366,-3.75607 -12.88372,-10.04886 -9.34314,-11.30649 -15.4479,-26.09512 -20.34339,-49.28139 -1.7969,-8.51053 -3.51715,-15.72378 -3.8228,-16.02942 -1.04741,-1.04742 -14.90259,8.96936 -21.21106,15.33482 -15.98775,16.13216 -24.38235,36.61344 -24.38235,59.48843 0,23.66862 8.58519,43.91931 25.7017,60.625 21.06925,20.56356 49.54901,28.11808 79.2983,21.0346 z m -114.375,-325.73142 c 17.13345,-8.80573 26.0925,-28.65912 21.32696,-47.26083 -2.71512,-10.5982 -8.15651,-18.74457 -16.07292,-24.06301 -8.80624,-5.91623 -14.60639,-7.5317 -24.49339,-6.82194 -14.08464,1.0111 -25.59384,8.86683 -31.99324,21.83733 -4.95604,10.04505 -5.78497,24.20653 -2.00358,34.22945 4.30648,11.41477 13.12803,20.07271 24.96402,24.50102 7.03949,2.63375 20.71449,1.46224 28.27215,-2.42202 z"
         id="path4227"
         inkscape:connector-curvature="0" />
      <path
         style="fill:#1996ff;fill-opacity:1"
         d="m 226.33928,731.11242 c -1.375,-0.32852 -6.4375,-1.49244 -11.25,-2.58652 -37.94424,-8.62621 -67.24339,-42.03815 -71.74157,-81.81212 -3.28998,-29.0907 6.42759,-57.13874 26.9831,-77.88197 13.52308,-13.64659 27.39719,-21.39123 46.51244,-25.96363 14.91209,-3.56699 36.32265,-2.76197 50.74603,1.908 12.14031,3.93076 26.27657,12.10436 35.90551,20.76059 7.02298,6.31351 22.21949,27.29151 22.21949,30.67286 0,3.61975 2.87852,3.0875 13.44742,-2.48649 21.25632,-11.21049 41.55258,-28.57532 41.55258,-35.55106 0,-3.56068 -7.3085,-6.30379 -25.48105,-9.56386 -9.01667,-1.61755 -21.1752,-3.83338 -27.01895,-4.92408 -38.1123,-7.11336 -72.11041,-23.8928 -80.0856,-39.52546 -9.39464,-18.41501 0.63478,-41.79488 30.26732,-70.557 14.94007,-14.50121 42.16843,-35.94427 57.54283,-45.3165 l 4.59956,-2.80389 -3.97456,-8.38991 c -3.7542,-7.92476 -3.9736,-9.18686 -3.95731,-22.7649 0.0156,-13.04203 0.33627,-15.06018 3.45785,-21.76405 5.4959,-11.803 13.27953,-19.92211 24.3389,-25.38795 9.14345,-4.51893 10.10037,-4.723 22.14746,-4.723 11.66621,0 13.19424,0.29692 20.80166,4.04203 9.96468,4.9056 19.96862,15.03363 24.39114,24.69369 16.83804,36.77913 -10.32274,78.15435 -49.46595,75.35367 -8.2851,-0.5928 -18.55056,-4.46123 -27.66155,-10.42396 -3.10703,-2.03341 -3.40679,-1.98801 -8.31373,1.25925 -2.79976,1.8528 -5.41975,4.59646 -5.82218,6.09702 -1.45589,5.42856 -0.73629,26.69149 1.14815,33.92636 6.38266,24.50469 26.06205,42.56939 55.64768,51.08181 17.69717,5.09186 30.82045,6.47864 60.25083,6.36695 l 27.1875,-0.10312 0,4.16569 c 0,2.29112 0.009,4.58755 0.019,5.10317 0.01,0.51563 -3.78642,1.21875 -8.4375,1.5625 l -8.45651,0.625 -0.38249,13.75 c -0.21038,7.5625 -0.0439,16.0829 0.36985,18.93423 l 0.75235,5.18424 6.10864,-1.61144 c 16.168,-4.26504 33.4836,-3.4588 52.02771,2.42247 14.48709,4.5946 24.63769,11.04671 37.47782,23.82238 9.66319,9.61465 12.29352,13.1738 17.66389,23.9013 8.07649,16.13303 11.10369,31.09621 9.92945,49.08039 -1.0155,15.55309 -3.46957,24.43255 -10.57594,38.26643 -4.6265,9.00636 -8.03187,13.49813 -17.07516,22.5225 -17.09601,17.06028 -32.73344,24.79075 -56.81795,28.08838 -31.52552,4.31644 -67.5068,-10.92121 -87.041,-36.86088 -20.95112,-27.82119 -25.39136,-65.55783 -11.42444,-97.09372 7.68577,-17.35365 22.15265,-33.47678 38.81898,-43.26315 l 9.8317,-5.77313 -0.75834,-6.31 c -0.41709,-3.4705 -0.76324,-12.51865 -0.76921,-20.10698 l -0.0109,-13.79707 -19.6875,-1.50042 c -41.8847,-3.19214 -66.87844,-12.24882 -85.75079,-31.07248 -13.97311,-13.93706 -22.06171,-34.0167 -22.06171,-54.76737 0,-5.19241 -0.32035,-9.44074 -0.71189,-9.44074 -1.31132,0 -21.05297,15.92786 -31.23587,25.20159 -18.34977,16.71139 -28.69222,29.60617 -33.90185,42.26821 -7.16418,17.41259 -1.25247,27.14866 23.97226,39.48026 15.33411,7.49638 35.62819,13.30114 62.83069,17.9716 29.72225,5.10309 37.69071,7.57895 42.6795,13.26088 4.63274,5.2764 4.97467,9.99033 1.27851,17.62558 -5.43344,11.224 -25.99764,27.75287 -48.88199,39.28984 l -9.59565,4.83757 1.40994,4.71973 c 0.77545,2.59586 1.42035,11.75099 1.4331,20.34474 0.0275,18.5547 -1.8004,26.43277 -10.14638,43.72925 -4.96922,10.29839 -7.29728,13.41555 -17.73767,23.75 -19.13539,18.94121 -37.72049,27.12781 -63.8927,28.14425 -7.21875,0.28036 -14.25,0.24095 -15.625,-0.0876 z m 31.73431,-13.06681 c 31.68775,-7.5964 55.90504,-32.37627 63.12448,-64.59089 2.77954,-12.40289 2.24857,-34.31254 -0.90804,-37.46915 -0.408,-0.408 -5.40133,1.24377 -11.09629,3.6706 -10.51621,4.48133 -45.84332,16.71425 -50.28632,17.4129 -1.88739,0.2968 -2.74982,-0.72845 -3.85207,-4.57934 l -1.42022,-4.96175 20.72708,-7.02694 c 30.53391,-10.35166 42.06965,-15.41477 41.57704,-18.24845 -1.61277,-9.27751 -21.45227,-31.54785 -35.22497,-39.54092 -13.85759,-8.04234 -23.0444,-10.26019 -42.5,-10.26019 -15.30216,0 -17.84523,0.33297 -27.28461,3.5725 -58.43759,20.0553 -76.24118,93.52794 -33.47345,138.13968 21.29886,22.21721 50.93691,30.99713 80.61737,23.88195 z m 257.45602,-1.24693 c 36.38652,-10.10321 61.39126,-43.18511 61.39126,-81.2222 0,-22.06455 -8.96379,-43.92687 -24.30584,-59.28096 -14.12347,-14.13456 -29.08306,-21.57362 -49.33991,-24.53555 -10.58444,-1.54765 -26.89724,-0.29965 -34.65964,2.6516 -3.04049,1.15599 -3.17011,1.56567 -2.37999,7.52193 1.65878,12.50443 8.20203,35.27771 12.83565,44.67349 2.60239,5.27698 7.17439,12.04384 10.15998,15.03748 5.2236,5.23768 5.36997,5.59131 3.88041,9.375 -2.66947,6.78089 -3.31059,6.68354 -11.51154,-1.748 -10.28342,-10.57255 -17.06773,-24.3963 -22.11306,-45.05766 -2.07495,-8.49729 -3.78126,-16.58872 -3.79179,-17.98097 -0.046,-6.07568 -1.9308,-6.37554 -9.30387,-1.48009 -18.72645,12.43367 -30.70983,29.24286 -36.34164,50.97677 -2.65379,10.24129 -2.65379,29.45264 0,39.69392 12.21613,47.1436 58.90166,74.30834 105.47998,61.37524 z M 395.1791,393.48725 c 4.33194,-1.46918 8.44848,-4.37235 13.87052,-9.7821 6.69897,-6.6838 8.07311,-8.88726 10.47615,-16.79871 4.74401,-15.61864 1.04997,-31.4685 -9.88208,-42.40055 -7.6303,-7.6303 -14.17407,-10.49623 -25.51189,-11.17326 -8.97643,-0.53602 -10.31287,-0.28164 -17.7467,3.37802 -14.74672,7.25979 -23.36506,21.10198 -23.42013,37.61583 -0.0941,28.23141 26.22882,47.97372 52.21413,39.16077 z"
         id="path4225"
         inkscape:connector-curvature="0" />
      <path
         style="fill:#1996ff;fill-opacity:1"
         d="m 223.70508,730.46629 c -38.6481,-6.46494 -69.20595,-34.65622 -78.15944,-72.10635 -3.63732,-15.21395 -2.83943,-37.65342 1.85462,-52.15846 4.47615,-13.83169 13.75358,-28.34995 24.85432,-38.89457 11.58652,-11.00607 21.04576,-16.76739 36.02746,-21.94321 11.20715,-3.8718 12.72842,-4.07968 29.93224,-4.0902 17.11532,-0.01 18.79255,0.21317 30.10831,4.01424 24.28778,8.15849 44.22354,25.24659 55.38793,47.47624 1.81272,3.60937 3.58168,6.5625 3.93102,6.5625 1.9636,0 20.158,-10.08765 29.38722,-16.29335 15.34503,-10.31798 25.94503,-22.78941 23.17675,-27.2686 -1.46759,-2.3746 -13.01477,-5.353 -37.06422,-9.56007 -29.90276,-5.23103 -50.148,-11.15771 -67.42056,-19.73699 -28.3623,-14.08757 -36.20085,-29.2412 -27.35512,-52.88352 7.64725,-20.43911 38.65511,-51.56586 79.11124,-79.41458 l 13.07895,-9.00313 -2.28287,-4.48238 c -6.96066,-13.66714 -8.18689,-30.26096 -3.26646,-44.20303 12.79423,-36.25251 57.26841,-46.33955 83.23925,-18.87922 15.59538,16.48983 18.69747,39.82833 8.13926,61.23556 -7.94213,16.103 -23.53326,26.5765 -41.25557,27.71385 -10.93658,0.70187 -19.51011,-1.54578 -29.98013,-7.85963 l -7.44001,-4.48662 -4.2684,2.24835 c -6.96387,3.66817 -7.95302,6.23569 -7.95137,20.6391 0.002,22.79596 5.13405,36.02707 19.54213,50.38826 20.3376,20.27143 54.11799,29.31945 103.49515,27.721 l 22.1875,-0.71826 0,5.54663 0,5.54663 -8.75,0 -8.75,0 0,18.54166 c 0,10.19793 0.32359,18.86526 0.71909,19.26077 0.3955,0.39549 2.50487,0.20662 4.6875,-0.41972 9.17163,-2.63195 24.0893,-3.62579 34.62461,-2.30675 23.13856,2.89699 40.7791,11.66289 57.4688,28.55728 12.13929,12.28817 19.30801,24.4896 23.93709,40.74176 4.04598,14.20504 4.04598,37.04496 0,51.25 -4.56975,16.04389 -11.78042,28.30051 -23.93709,40.68806 -11.99558,12.2234 -22.94294,19.2596 -38.125,24.50414 -9.289,3.20881 -11.422,3.45534 -30,3.46734 -18.40825,0.0125 -20.79588,-0.25436 -30,-3.34543 -12.87416,-4.32357 -26.68684,-12.83738 -36.64286,-22.58582 -28.2344,-27.64568 -36.5652,-67.33986 -21.91973,-104.442 7.11018,-18.0126 23.6376,-36.97488 40.94774,-46.98025 l 8.55346,-4.94397 -0.77292,-8.18103 c -0.4251,-4.49958 -0.77692,-13.56698 -0.7818,-20.14978 l -0.009,-11.96874 -19.6875,-1.48188 c -22.4531,-1.69006 -41.91599,-5.69894 -55.86926,-11.5077 -32.77295,-13.64341 -51.8411,-41.05324 -51.92154,-74.63544 -0.0125,-4.98438 -0.40856,-9.0625 -0.8814,-9.0625 -2.93074,0 -38.20718,30.45386 -47.3646,40.88947 -22.53215,25.67715 -26.34795,43.42853 -11.9252,55.47687 2.48847,2.0788 10.712,6.84571 18.2745,10.59314 16.56072,8.20628 36.88416,13.91866 68.44939,19.23932 24.04445,4.05294 33.01456,7.09126 37.82946,12.81345 10.48029,12.45511 -8.49818,34.65641 -47.30618,55.33949 -8.64994,4.61007 -10.85387,6.32405 -10.22278,7.95019 0.4425,1.14018 1.42851,6.70958 2.19113,12.37643 5.57033,41.39152 -21.35516,85.33382 -61.26408,99.98279 -15.91128,5.84039 -33.55035,7.73963 -48.56114,5.22866 z m 40.1342,-13.58607 c 33.57619,-10.57005 57.25029,-41.15538 59.06604,-76.3093 0.35659,-6.90377 -0.009,-14.88162 -0.8736,-19.0446 l -1.48725,-7.16402 -4.60259,2.30866 c -11.58085,5.80894 -58.54835,21.86133 -59.49276,20.33324 -0.27933,-0.45197 -0.87315,-2.78622 -1.3196,-5.18725 l -0.81173,-4.36547 18.01449,-6.03679 c 19.26437,-6.45562 42.09019,-15.32187 43.79578,-17.01164 1.29869,-1.28663 -3.04282,-9.91592 -9.14393,-18.17471 -17.93279,-24.27471 -48.90794,-38.08114 -77.37007,-34.48582 -21.172,2.67442 -36.46307,10.12965 -51.4235,25.07175 -30.80496,30.76721 -32.91962,78.89552 -4.98239,113.39608 10.62569,13.12202 29.42139,24.66752 46.41968,28.5139 11.47883,2.59744 32.9473,1.70201 44.21143,-1.84403 z m 250.69593,0.5693 c 26.18205,-6.73109 49.40904,-28.68068 58.86017,-55.62304 2.46229,-7.01926 2.85018,-10.59164 2.85018,-26.25 0,-15.65836 -0.38789,-19.23074 -2.85018,-26.25 -9.15555,-26.09976 -29.46966,-45.96955 -55.8061,-54.58544 -11.87053,-3.88341 -31.19504,-4.66022 -44.2013,-1.7768 l -7.9513,1.76276 0.81102,7.1685 c 2.59737,22.95764 12.45714,48.93077 22.58892,59.50488 5.46711,5.7058 5.50377,5.80291 3.76306,9.96901 -0.96681,2.3139 -2.37314,4.20709 -3.12516,4.20709 -0.75204,0 -4.12249,-2.57711 -7.48988,-5.72691 -10.55159,-9.86978 -20.42686,-32.55073 -24.99109,-57.39809 -0.75772,-4.125 -1.64494,-8.75541 -1.9716,-10.2898 l -0.59391,-2.7898 -6.18137,3.80345 c -36.79849,22.64233 -50.81343,69.17436 -32.60125,108.24174 10.9237,23.43267 33.57897,41.73815 57.56886,46.51566 3.78125,0.75302 8,1.62821 9.375,1.94485 4.74692,1.09314 23.9168,-0.36387 31.94592,-2.42806 z M 396.25612,393.00024 c 8.7559,-3.276 17.34239,-11.53318 21.73179,-20.89834 2.81149,-5.99854 3.35137,-8.86203 3.35137,-17.77542 0,-8.83346 -0.54824,-11.79385 -3.25139,-17.55704 -4.25603,-9.07396 -9.51685,-14.92113 -17.17491,-19.08917 -24.0981,-13.11583 -51.7613,0.99439 -57.6278,29.39432 -1.72944,8.37222 -0.41911,17.62908 3.75128,26.50121 3.37436,7.17865 14.41326,17.41874 21.46948,19.91588 7.83737,2.77359 19.57939,2.56564 27.75018,-0.49144 z"
         id="path4223"
         inkscape:connector-curvature="0" />
      <path
         style="fill:#1996ff;fill-opacity:1"
         d="m 225.12453,730.43437 c -36.4595,-5.31038 -67.14211,-31.49299 -78.02904,-66.58509 -2.75941,-8.89447 -3.14562,-12.38635 -3.12702,-28.2728 0.0193,-16.4654 0.34215,-19.09786 3.52618,-28.75 21.94826,-66.53436 105.70381,-88.19534 155.87609,-40.3129 9.8256,9.37718 18.65264,21.21702 21.3224,28.60011 0.83785,2.31704 2.21091,4.21279 3.05127,4.21279 2.1332,0 19.61056,-9.4536 28.47547,-15.40255 13.38337,-8.98112 24.4944,-20.77643 24.4944,-26.0029 0,-4.42485 -9.73762,-7.33191 -43.75,-13.06104 -23.16353,-3.90174 -46.20189,-11.05123 -62.58852,-19.42312 -14.71624,-7.51849 -21.53868,-13.22112 -25.74271,-21.51736 -12.59724,-24.85947 10.42964,-59.34744 67.70623,-101.40546 7.5625,-5.55312 16.14063,-11.64378 19.0625,-13.53481 2.92188,-1.89103 5.3125,-3.64835 5.3125,-3.90515 0,-0.25681 -1.82812,-4.32695 -4.0625,-9.04477 -3.78078,-7.98298 -4.0625,-9.48804 -4.0625,-21.70284 0,-12.25115 0.27486,-13.70757 4.12844,-21.875 12.376,-26.23029 40.91042,-37.48922 65.65976,-25.90761 11.22501,5.25282 18.70557,12.51158 23.98302,23.27192 13.34245,27.20422 3.10267,58.87398 -23.22667,71.83587 -15.79498,7.77585 -34.75631,6.19903 -49.23408,-4.09429 l -6.15611,-4.37683 -5.69859,4.0933 c -5.0098,3.59854 -5.81813,4.83872 -6.68775,10.26047 -1.28022,7.98178 -0.14605,23.364 2.354,31.92615 4.77824,16.36443 18.06837,32.42089 33.72399,40.74362 21.20504,11.27287 48.89781,16.10265 86.46649,15.08025 l 22.8125,-0.62083 0,4.69776 c 0,5.59937 -1.13335,6.21522 -11.43776,6.21522 l -7.4833,0 0.86557,19.0625 c 0.47608,10.48437 0.99439,19.2142 1.15183,19.39961 0.15742,0.18543 4.16577,-0.572 8.90745,-1.68315 6.33009,-1.48337 12.60753,-1.87792 23.62121,-1.48461 12.69552,0.45337 16.79446,1.14645 26.68029,4.5113 25.36532,8.6336 46.45522,27.77185 56.90011,51.6346 8.57771,19.59694 10.13593,44.9421 4.0229,65.43475 -8.89798,29.82857 -31.17793,53.05976 -60.76401,63.3583 -11.37433,3.95925 -12.57565,4.1201 -30.58929,4.09559 -17.73048,-0.0241 -19.3957,-0.2423 -30.625,-4.01228 -25.98619,-8.72427 -46.94824,-28.28845 -57.52086,-53.68502 -10.02933,-24.09153 -10.02933,-49.17165 0,-73.26318 4.85782,-11.66901 9.78522,-19.1888 19.09457,-29.14052 7.1199,-7.6112 24.825,-20.47789 28.17841,-20.47789 1.42737,0 1.56849,-3.56494 0.82885,-20.9375 -0.49027,-11.51563 -1.00914,-21.07821 -1.15305,-21.25019 -0.14389,-0.17198 -8.57498,-0.87299 -18.73572,-1.55779 -47.02064,-3.16901 -77.70151,-16.64124 -94.64272,-41.55842 -2.68453,-3.94839 -5.9646,-9.70698 -7.28908,-12.79685 -3.12823,-7.29784 -6.2604,-23.95204 -6.2604,-33.28733 0,-4.04906 -0.50479,-7.36192 -1.12176,-7.36192 -2.45713,0 -27.7501,21.17594 -39.86832,33.3788 -29.36106,29.56617 -35.32701,49.68032 -18.76155,63.25448 8.19714,6.71693 32.09484,17.53817 48.50163,21.96226 7.90625,2.13192 24.2997,5.5497 36.4299,7.59505 31.20078,5.26098 40.08087,9.14023 41.79106,18.25635 1.06349,5.66885 -2.65675,13.38852 -10.67357,22.14816 -7.40468,8.09079 -27.24823,21.79959 -41.06018,28.3662 -7.96129,3.78504 -9.03302,4.686 -8.43038,7.0871 2.01766,8.03901 3.31543,23.30784 2.58823,30.4516 -4.59887,45.17778 -35.90785,79.14753 -80.04149,86.84379 -11.90757,2.0765 -17.30268,2.17317 -28.69332,0.5141 z m 39.33975,-13.44162 c 24.65897,-7.89112 45.9338,-29.02884 54.58697,-54.23517 3.14568,-9.16321 3.53803,-12.03883 3.53803,-25.9311 0,-8.59375 -0.41138,-17.08733 -0.91416,-18.87462 l -0.91417,-3.24962 -13.46083,5.38219 c -21.14313,8.45389 -49.03581,17.29209 -50.36805,15.95984 -0.644,-0.644 -1.47686,-2.84084 -1.85078,-4.88185 l -0.67987,-3.71094 16.59394,-5.42192 c 14.09331,-4.60488 44.28695,-15.95473 45.82467,-17.22559 0.871,-0.71985 -2.67536,-8.08523 -7.35657,-15.2787 -2.53183,-3.89059 -8.03077,-10.39251 -12.21988,-14.44873 -26.17946,-25.34899 -63.40521,-31.11481 -96.5293,-14.95121 -20.9596,10.22767 -38.57843,31.26657 -44.43958,53.06596 -12.31837,45.8157 15.37989,93.42458 61.13822,105.0868 12.11716,3.08825 35.36927,2.45305 47.05136,-1.28534 z m 241.95792,2.2694 c 18.83492,-3.33757 32.94389,-10.81403 46.83323,-24.81728 7.49541,-7.55689 10.59955,-11.9157 15.21757,-21.36839 6.96722,-14.26126 8.49128,-21.06807 8.49128,-37.9239 0,-15.52569 -2.06904,-24.32831 -8.95663,-38.10544 -16.38114,-32.76697 -54.42656,-51.76832 -90.35473,-45.12663 -13.58014,2.51042 -13.12187,1.96641 -11.16003,13.24818 4.5589,26.21636 12.15579,45.58101 22.09819,56.3288 5.38919,5.82575 5.4713,6.04149 3.81192,10.01649 -0.93273,2.23437 -2.36557,4.0625 -3.18406,4.0625 -0.81849,0 -4.40522,-3.01169 -7.97051,-6.69265 -10.83821,-11.18984 -20.68146,-34.8466 -24.48664,-58.84994 -0.77009,-4.85782 -1.76252,-9.24599 -2.2054,-9.75147 -1.11392,-1.27138 -13.20539,6.90818 -20.53254,13.88972 -10.28548,9.80035 -17.90381,21.78997 -22.27026,35.04863 -3.50419,10.6404 -3.94559,13.58887 -3.94559,26.35571 0,12.76114 0.44074,15.70819 3.92575,26.25 13.24203,40.05585 53.83047,64.6758 94.68845,57.43567 z M 396.89547,392.90045 c 16.68157,-7.20257 26.18932,-23.43221 24.73959,-42.23027 -1.22043,-15.82458 -9.72807,-28.2028 -23.73643,-34.53541 -22.77679,-10.29644 -47.62621,2.60406 -54.14166,28.10748 -8.3696,32.76117 23.1374,61.61171 53.1385,48.6582 z"
         id="path4221"
         inkscape:connector-curvature="0" />
      <path
         style="fill:#1996ff;fill-opacity:1"
         d="m 226.41533,730.41975 c -10.92994,-1.4288 -27.34578,-7.04256 -36.58687,-12.5117 -10.41669,-6.16487 -25.80545,-21.31896 -32.41037,-31.91611 -3.14827,-5.05121 -7.46452,-14.38296 -9.59165,-20.73723 -3.58904,-10.72134 -3.86752,-12.81332 -3.86752,-29.05323 0,-16.25419 0.2764,-18.32581 3.88263,-29.10022 10.8186,-32.32294 32.80321,-53.10199 67.24773,-63.56009 5.6026,-1.70107 11.61103,-2.27749 23.75,-2.27847 15.42834,-10e-4 16.89499,0.22477 29.00601,4.46943 7.0158,2.4589 15.9259,6.38291 19.8002,8.72004 14.53083,8.76552 28.53782,23.90809 35.59903,38.48512 l 3.71648,7.67226 8.91476,-4.48938 c 13.32449,-6.71011 28.42479,-16.8157 35.49481,-23.75423 6.60646,-6.48359 10.79941,-13.54896 9.71605,-16.37215 -0.98189,-2.55875 -14.67859,-6.15535 -42.24734,-11.09369 -29.37455,-5.2618 -49.66692,-11.64536 -66.77483,-21.006 -20.57991,-11.26035 -27.25987,-20.68357 -26.05216,-36.75101 1.2929,-17.20091 12.31372,-34.08009 37.49859,-57.43181 15.31435,-14.19966 36.14925,-30.37835 51.26366,-39.8072 3.2644,-2.03643 5.93628,-4.14688 5.9375,-4.6899 10e-4,-0.54301 -1.20855,-3.35551 -2.6884,-6.25 -13.8876,-27.16313 -2.82671,-59.3333 24.90804,-72.44406 6.69021,-3.1626 9.35308,-3.71089 18.125,-3.73198 13.2008,-0.0317 19.04981,1.63698 28.70404,8.18926 14.91977,10.12599 22.78434,26.40634 22.00845,45.55941 -0.37263,9.19827 -1.09096,12.29066 -4.5679,19.66467 -14.20254,30.12114 -49.27147,39.41291 -74.91924,19.8504 l -4.16272,-3.17507 -6.05316,3.8843 c -6.97537,4.47608 -7.60187,6.2755 -7.60187,21.83399 0,16.25853 5.75914,32.93737 15.46406,44.78498 6.72579,8.21073 20.01049,17.16595 33.02572,22.26264 20.50266,8.02874 28.97446,9.24032 64.86624,9.27679 l 31.48103,0.032 0.78707,4.19023 c 0.4329,2.30463 0.44174,4.53557 0.0196,4.95766 -0.42209,0.42209 -5.38024,1.12128 -11.0181,1.55374 -5.63788,0.43246 -9.63288,0.87339 -8.87777,0.97984 0.8805,0.12412 1.68449,6.7883 2.24171,18.58107 0.47783,10.11315 1.04298,18.56174 1.25588,18.77463 0.21289,0.21288 4.26662,-0.52579 9.00829,-1.64152 11.96213,-2.81472 35.42099,-1.83738 46.74621,1.94753 12.63297,4.22196 24.87339,10.72014 33.65978,17.86926 36.57726,29.76142 45.28341,85.16292 19.57331,124.55447 -8.23828,12.62222 -14.87937,19.37747 -27.05943,27.52458 -37.05223,24.78383 -87.10648,20.68813 -119.07663,-9.74345 -11.74549,-11.18025 -23.3926,-31.59861 -27.19379,-47.67304 -2.00622,-8.48388 -2.0292,-34.88541 -0.037,-42.5 3.02583,-11.56523 10.77953,-27.66406 17.57818,-36.49712 7.68922,-9.99015 19.57292,-20.23112 30.02046,-25.87065 l 6.83989,-3.69212 -0.39868,-20.40755 c -0.21927,-11.22415 -0.65855,-20.82943 -0.97616,-21.34505 -0.31761,-0.51563 -6.12857,-0.9375 -12.91326,-0.9375 -24.86693,0 -53.36333,-6.34557 -71.74594,-15.97635 -26.79886,-14.04013 -40.40963,-35.8901 -42.99668,-69.0245 l -0.89902,-11.51506 -13.125,10.33005 c -16.48396,12.97372 -36.11621,32.0181 -43.10145,41.81083 -10.67705,14.96832 -14.31265,25.40971 -11.9293,34.2608 2.43134,9.02931 17.55229,19.84455 40.03075,28.63192 10.07289,3.93774 40.06766,10.99171 59.07261,13.89228 27.60496,4.21314 35.92739,8.57737 35.92739,18.8401 0,2.88589 -0.90128,7.14636 -2.00283,9.46771 -5.1744,10.90424 -22.28401,24.86415 -45.23478,36.90755 -11.95268,6.27214 -12.80888,6.97071 -12.10279,9.87464 0.41791,1.71875 1.07056,10.33167 1.45034,19.13983 0.83811,19.43862 -1.00348,28.60343 -9.08963,45.23517 -7.0798,14.56188 -15.79744,25.23723 -27.99364,34.28016 -19.9992,14.8285 -45.74966,21.77005 -69.32562,18.68811 z m 31.93658,-11.63811 c 12.84911,-2.72361 27.184,-10.60551 38.03568,-20.91355 19.8659,-18.87066 27.75679,-38.76139 26.59203,-67.03109 -0.30608,-7.42876 -0.97109,-14.17765 -1.47779,-14.99752 -0.69819,-1.12969 -2.04024,-1.02101 -5.54192,0.44876 -23.58829,9.9008 -57.6571,21.14503 -59.21721,19.5443 -0.4723,-0.48459 -1.03753,-2.50739 -1.25607,-4.49511 -0.39698,-3.61071 -0.37949,-3.62008 18.97765,-10.15041 18.8997,-6.37603 40.9461,-14.98886 42.79908,-16.72025 1.92945,-1.80285 -10.75372,-20.8633 -19.70032,-29.60592 -15.3877,-15.03685 -37.98261,-24.28096 -59.34876,-24.28096 -31.07048,0 -61.79314,18.95073 -75.92085,46.83041 -6.2332,12.30063 -8.04365,19.45908 -8.70425,34.41618 -0.77876,17.63263 1.21756,27.32981 8.73927,42.4512 10.29313,20.69299 33.99385,39.85229 54.92107,44.39737 10.33125,2.24379 30.76974,2.2968 41.10239,0.10663 z m 259.45513,-1.70296 c 21.66623,-6.82481 40.00455,-22.39655 50.35897,-42.76164 6.4161,-12.6192 8.74251,-20.95644 9.58931,-34.36556 0.89154,-14.11753 -1.48348,-26.02159 -7.95394,-39.86701 -14.33391,-30.6715 -44.05901,-49.61744 -77.60632,-49.46408 -9.79894,0.0447 -24.69449,2.58801 -26.43669,4.5137 -1.1661,1.28894 2.96697,26.07443 5.80593,34.81739 4.05129,12.47644 10.31873,24.39524 16.05016,30.5226 5.69147,6.08464 5.79692,6.34265 4.36534,10.68034 -0.91587,2.77516 -2.01614,4.13667 -2.92876,3.62416 -9.04712,-5.08086 -18.74626,-18.93101 -24.03447,-34.32066 -3.9821,-11.5886 -9.29853,-33.13514 -9.30068,-37.69394 -8.8e-4,-1.89063 -0.35501,-3.4375 -0.78695,-3.4375 -2.80261,0 -14.9534,8.69486 -22.33966,15.98581 -10.31198,10.17891 -16.93507,20.85033 -21.49841,34.63919 -4.64959,14.04949 -4.89705,35.5558 -0.56777,49.34347 5.46313,17.39865 13.44308,29.65317 26.76942,41.10882 9.63261,8.28041 27.67453,17.28668 37.79676,18.8676 11.47476,1.79215 33.68691,0.65201 42.71776,-2.19269 z M 393.86773,394.2268 c 9.98005,-3.08252 18.20711,-10.05362 23.81901,-20.18273 3.38624,-6.11193 3.65254,-7.54953 3.65254,-19.71759 0,-15.30539 -1.93799,-20.37954 -11.55102,-30.24359 -7.82929,-8.03373 -16.06503,-11.52533 -27.32501,-11.58465 -33.8626,-0.17839 -52.88892,42.22362 -30.95641,68.98936 5.79905,7.07697 11.86861,11.0328 20.45744,13.33307 9.34029,2.50154 12.12622,2.42601 21.90345,-0.59387 z"
         id="path4219"
         inkscape:connector-curvature="0" />
    </g>
  </g>
</svg>
